<svg xmlns="http://www.w3.org/2000/svg" viewBox="0 0 24 24" fill="currentColor">
  <path d="M17.472 14.382c-.297-.149-1.758-.867-2.031-.967-.273-.099-.472-.149-.672.15-.198.297-.768.966-.941 1.164-.173.198-.347.223-.644.075-.297-.149-1.255-.463-2.39-1.475-.883-.788-1.48-1.761-1.653-2-.173-.297-.018-.458.131-.606.134-.133.297-.347.446-.52.149-.173.198-.298.298-.497.099-.198.05-.373-.025-.522-.075-.149-.672-1.611-.92-2.215-.242-.579-.487-.501-.672-.51-.173-.009-.372-.009-.572-.009-.198 0-.52.074-.792.372-.273.297-1.04 1.016-1.04 2.479 0 1.462 1.065 2.875 1.213 3.074.149.198 2.096 3.2 5.077 4.487.709.306 1.26.489 1.689.626.709.225 1.356.193 1.868.117.569-.085 1.758-.718 2.006-1.412.248-.694.248-1.289.173-1.412-.074-.124-.272-.198-.569-.347zM12.021 2c-5.514 0-9.965 4.45-9.965 9.965 0 1.757.461 3.463 1.337 4.966L2 22l5.188-1.357c1.447.794 3.085 1.216 4.833 1.216 5.514 0 9.965-4.451 9.965-9.965C22 6.451 17.535 2 12.021 2z"/>
</svg>
